<svg xmlns="http://www.w3.org/2000/svg" width="29.998" height="31" viewBox="0 0 29.998 31"><path d="M14.341,31h0c-1.465-.06-3.522-.313-4.476-1.816-.8-1.494-.066-3.284.665-4.676A8.692,8.692,0,0,1,14.34,31Zm1.407,0h0a9,9,0,0,1,3.8-6.473c1.035,2,1.215,3.479.569,4.666C19.2,30.631,17.3,30.913,15.748,31ZM5.487,26.7c-1.67,0-2.9-1.538-3.779-2.875a8.739,8.739,0,0,1,3.824-.846,9.231,9.231,0,0,1,3.81.858C8.064,25.792,6.839,26.7,5.487,26.7Zm19.031,0h0c-1.675,0-2.9-1.536-3.785-2.872a8.723,8.723,0,0,1,3.824-.846,9.256,9.256,0,0,1,3.812.858C27.085,25.79,25.862,26.7,24.518,26.7Zm-9.334-2.516H15a9.321,9.321,0,0,1-3.779-.851C12.093,22,13.31,20.473,15,20.473h.011c1.346,0,2.568.907,3.843,2.855a9.573,9.573,0,0,1-1.9.652l-.264.05-.163.031-.165.022-.191.031-.111.012c-.064.007-.125.014-.189.019-.133.012-.27.023-.4.026l-.144.005Zm-5.15-1.52h0c-.155-.1-.284-.2-.4-.282l-.2-.158-.065-.048-.056-.051a8.884,8.884,0,0,1-3.09-5.943c1.433.075,3.444.347,4.382,1.822.638,1.183.456,2.663-.575,4.659Zm19.021,0h0l-.089-.062c-.1-.071-.207-.144-.308-.217l-.2-.158-.065-.05-.056-.049a8.87,8.87,0,0,1-3.089-5.946c1.556.085,3.46.37,4.381,1.823.639,1.179.456,2.659-.575,4.659ZM1.013,22.653h0c-.732-1.384-1.468-3.165-.65-4.673.938-1.465,2.876-1.736,4.46-1.808a8.862,8.862,0,0,1-3.809,6.481Zm19.021,0h0c-.733-1.382-1.47-3.163-.653-4.675.943-1.465,2.879-1.736,4.46-1.808a8.844,8.844,0,0,1-3.806,6.484ZM4.826,14.837h0c-1.591-.07-3.538-.34-4.473-1.814-.8-1.5-.066-3.289.667-4.679a8.7,8.7,0,0,1,3.807,6.492Zm19.021,0h0c-1.591-.07-3.538-.34-4.475-1.817-.8-1.5-.064-3.289.664-4.683a8.729,8.729,0,0,1,3.812,6.5Zm1.4-.006h0a8.835,8.835,0,0,1,1.186-3.642,9.157,9.157,0,0,1,2.62-2.836c1.029,2,1.21,3.488.57,4.671-.921,1.443-2.822,1.724-4.375,1.808Zm-19.018,0h0a9,9,0,0,1,3.806-6.473c1.028,2,1.207,3.487.567,4.668-.925,1.445-2.822,1.724-4.372,1.805Zm8.776-4.3H15c-1.677,0-2.9-1.533-3.782-2.869a8.785,8.785,0,0,1,3.823-.843h.017a9.323,9.323,0,0,1,3.8.855C17.567,9.62,16.345,10.527,15.006,10.527ZM5.58,8.019H5.493a9.284,9.284,0,0,1-3.785-.86C2.586,5.83,3.809,4.3,5.493,4.3c1.348,0,2.571.907,3.849,2.855a8.717,8.717,0,0,1-1.9.651l-.269.054L7.013,7.9l-.16.019-.191.031c-.1.011-.2.023-.3.034C6.239,7.993,6.122,8,6,8l-.036,0c-.086.007-.179.011-.286.011Zm19.113-.005h-.18a9.37,9.37,0,0,1-3.787-.854c.879-1.333,2.1-2.861,3.787-2.861,1.347,0,2.57.907,3.849,2.855a9.035,9.035,0,0,1-1.9.652l-.264.057-.162.028-.163.025-.191.029c-.081.006-.159.015-.236.023l-.067.007L25.3,7.98c-.1.007-.21.015-.314.019l-.056,0C24.849,8.008,24.768,8.014,24.693,8.014ZM19.538,6.491h0c-.158-.11-.282-.2-.391-.282l-.2-.152L18.882,6l-.059-.045A8.926,8.926,0,0,1,15.731.008c1.435.078,3.45.353,4.387,1.822.641,1.188.457,2.668-.579,4.659Zm-9.024,0h0C9.786,5.1,9.055,3.313,9.869,1.811,10.6.663,11.977.1,14.326,0a8.851,8.851,0,0,1-3.811,6.49Z" transform="translate(-0.003)" fill="#222"/></svg>