<svg xmlns="http://www.w3.org/2000/svg" width="15" height="15.001" viewBox="0 0 15 15.001"><path d="M8.372,15H5.087c0-.079.043-9.337,0-10.191H8.372v1.6a2.949,2.949,0,0,1,2.918-1.7,3.389,3.389,0,0,1,2.635,1.128A5.227,5.227,0,0,1,15,9.334V15H11.685V9.726c0-1.5-.589-2.321-1.659-2.321A1.707,1.707,0,0,0,8.443,8.654a2.1,2.1,0,0,0-.072.721c0,.037,0,.074,0,.112V15ZM3.3,15H.378V4.81H3.3V15ZM1.766,3.535H1.744A1.7,1.7,0,0,1,0,1.77,1.7,1.7,0,0,1,1.786,0,1.7,1.7,0,0,1,3.549,1.768,1.7,1.7,0,0,1,1.766,3.535Z" transform="translate(0 0)" fill="#333"/></svg>