<svg viewBox="0 0 160 27" xmlns="http://www.w3.org/2000/svg"><g fill-rule="nonzero" fill="none"><path fill="#282828" d="M37.267 12.456H44.2V8.33h-6.933V5.182H44.6V1H33v19h12v-4.179h-7.733zM57.816 7.623C56.896 6.613 55.534 6 53.663 6 50.013 6 47 9.06 47 13.026c0 3.964 3.012 7.025 6.663 7.025 1.868 0 3.233-.613 4.153-1.623V25H62V6.378h-4.184v1.245zM54.5 16.272c-1.924 0-3.316-1.25-3.316-3.246 0-1.997 1.392-3.225 3.316-3.225s3.316 1.25 3.316 3.246c0 1.997-1.395 3.228-3.316 3.228v-.003zM72.939 13.437c0 1.932-1.027 2.806-2.517 2.806-1.3 0-2.357-.792-2.357-2.48V6H64v8.362C64 18.038 66.328 20 69.066 20c1.785 0 3.141-.654 3.87-1.661v1.278H77V6h-4.061v7.437zM80 6h4v14h-4zM82.504 0A2.5 2.5 0 1085 2.5 2.526 2.526 0 0082.504 0zM95.339 6c-1.868 0-3.234.614-4.154 1.623V6.374H87V25h4.185v-6.572c.92 1.01 2.282 1.623 4.154 1.623 3.652 0 6.661-3.06 6.661-7.025C102 9.06 98.998 6 95.339 6zm-.837 10.272c-1.921 0-3.317-1.25-3.317-3.246 0-1.997 1.403-3.228 3.325-3.228 1.92 0 3.317 1.249 3.317 3.246 0 1.997-1.393 3.228-3.317 3.228h-.008zM119.933 6.005c-1.896 0-3.121.71-3.867 1.798a3.94 3.94 0 00-3.492-1.798c-1.786 0-2.961.71-3.573 1.635V6.387H105V20h4.001v-7.676c0-1.608.746-2.56 2.081-2.56 1.277 0 1.917.87 1.917 2.23v8.002h4.002v-7.672c0-1.608.745-2.56 2.077-2.56 1.331 0 1.92.87 1.92 2.23v8.002H125v-8.355c-.004-3.403-2.004-5.636-5.067-5.636zM137.816 7.617C136.896 6.611 135.534 6 133.663 6 130.013 6 127 9.05 127 13s3.012 7 6.663 7c1.868 0 3.233-.611 4.153-1.617v1.244H142V6.377h-4.184v1.24zm-3.316 8.617c-1.924 0-3.32-1.244-3.32-3.234s1.396-3.212 3.32-3.212 3.316 1.244 3.316 3.234-1.395 3.216-3.316 3.216v-.004zM154.64 6.37v1.409C153.741 6.658 152.44 6 150.674 6 146.815 6 144 9.18 144 12.959c0 3.778 2.826 6.955 6.675 6.955 1.765 0 3.067-.654 3.964-1.775v4.638h-8.529V27H159V6.37h-4.36zm-3.275 9.766c-1.929 0-3.29-1.29-3.29-3.177s1.361-3.177 3.29-3.177c1.928 0 3.26 1.263 3.285 3.125v.104c-.037 1.861-1.383 3.125-3.285 3.125z"/><path fill="#0019AA" d="M7 20V8h12V1H0v19z"/><path fill="#F01E9B" d="M19 8v12H7v7h19V8z"/></g></svg>