<svg viewBox="0 0 160 27" xmlns="http://www.w3.org/2000/svg"><g fill="#FFF" fill-rule="nonzero"><path d="M37.862 12.186h7.132v-4.14h-7.132V4.886h7.544V.69H33.473v19.066h12.344v-4.193h-7.955zM57.671 7.422c-.905-1.032-2.243-1.66-4.082-1.66-3.589 0-6.55 3.13-6.55 7.181 0 4.053 2.961 7.18 6.55 7.18 1.835 0 3.177-.626 4.082-1.658v6.717h4.112V6.149h-4.112v1.273zm-3.26 8.839c-1.891 0-3.26-1.277-3.26-3.318 0-2.04 1.369-3.295 3.26-3.295 1.892 0 3.26 1.277 3.26 3.318 0 2.04-1.372 3.299-3.26 3.299v-.004zM73.645 13.574c0 1.93-1.04 2.802-2.546 2.802-1.316 0-2.385-.79-2.385-2.475V6.149h-4.112v8.35c0 3.67 2.355 5.629 5.125 5.629 1.806 0 3.178-.654 3.914-1.66v1.277h4.112V6.15h-4.108v7.425zM80.766 6.149h4.108v13.596h-4.108zM82.822.056a2.468 2.468 0 00-2.282 1.509 2.436 2.436 0 00.533 2.67 2.48 2.48 0 002.689.533 2.45 2.45 0 001.524-2.263 2.484 2.484 0 00-2.464-2.45zM96.075 5.767c-1.836 0-3.178.627-4.082 1.658V6.15H87.88v19.036h4.113V18.47c.904 1.031 2.243 1.659 4.082 1.659 3.589 0 6.546-3.129 6.546-7.18 0-4.053-2.95-7.181-6.546-7.181zm-.823 10.498c-1.888 0-3.26-1.277-3.26-3.318 0-2.04 1.38-3.299 3.268-3.299s3.26 1.277 3.26 3.318c0 2.04-1.369 3.299-3.26 3.299h-.008zM120.303 5.767c-1.948 0-3.208.708-3.974 1.796a4.084 4.084 0 00-3.589-1.796c-1.835 0-3.043.708-3.67 1.632V6.15h-4.113v13.596h4.112V12.08c0-1.607.767-2.557 2.138-2.557 1.313 0 1.97.868 1.97 2.226v7.994h4.113v-7.663c0-1.607.766-2.557 2.134-2.557 1.369 0 1.974.868 1.974 2.226v7.994h4.112v-8.346c-.003-3.4-2.06-5.63-5.207-5.63zM138.277 7.422c-.905-1.032-2.243-1.66-4.083-1.66-3.588 0-6.55 3.13-6.55 7.181 0 4.053 2.962 7.18 6.55 7.18 1.836 0 3.178-.626 4.083-1.658v1.277h4.112V6.149h-4.112v1.273zm-3.26 8.839c-1.892 0-3.264-1.277-3.264-3.318 0-2.04 1.372-3.295 3.264-3.295 1.891 0 3.26 1.277 3.26 3.318 0 2.04-1.372 3.299-3.26 3.299v-.004zM155.45 6.134v1.399c-.904-1.113-2.216-1.766-3.996-1.766-3.891 0-6.729 3.158-6.729 6.91 0 3.75 2.849 6.905 6.73 6.905 1.779 0 3.09-.65 3.995-1.763v4.606h-8.598v4.193h12.995V6.134h-4.397zm-3.3 9.696c-1.944 0-3.316-1.28-3.316-3.154 0-1.874 1.372-3.154 3.316-3.154 1.943 0 3.286 1.254 3.312 3.102v.104c-.038 1.848-1.395 3.102-3.312 3.102zM7.353 19.638V7.67H19.41V.69H.321v18.948z"/><path d="M19.41 7.67v11.968H7.352v6.98h19.088V7.67z"/></g></svg>