<svg xmlns="http://www.w3.org/2000/svg" width="30" height="30" viewBox="0 0 30 30"><g transform="translate(0 0)"><g transform="translate(3)"><path d="M2.9,30A2.906,2.906,0,0,1,0,27.1v-3.93a8.41,8.41,0,0,1,8.4-8.4h6.575a8.41,8.41,0,0,1,8.4,8.4V27.1a2.906,2.906,0,0,1-2.9,2.9Zm-.968-6.834V27.1a.969.969,0,0,0,.968.968h17.57a.969.969,0,0,0,.968-.968v-3.93A6.473,6.473,0,0,0,14.975,16.7H8.4A6.472,6.472,0,0,0,1.936,23.166Zm3.2-16.611a6.555,6.555,0,1,1,6.555,6.555A6.563,6.563,0,0,1,5.133,6.555Zm1.936,0a4.619,4.619,0,1,0,4.619-4.619A4.624,4.624,0,0,0,7.069,6.555Z" transform="translate(0 0)" fill="#0019aa"/></g></g></svg>