<svg xmlns="http://www.w3.org/2000/svg"><g fill="none" fill-rule="evenodd"><path d="M6.908 0a3.612 3.612 0 100 7.224 3.612 3.612 0 000-7.224m0 2c.89 0 1.612.723 1.612 1.612 0 .89-.723 1.612-1.612 1.612a1.614 1.614 0 01-1.612-1.612C5.296 2.723 6.02 2 6.908 2" fill="#FFF" fill-rule="nonzero"/><path d="M11.39 17H2.427A1.426 1.426 0 011 15.574v-1.602a4.314 4.314 0 014.3-4.3h3.216c2.365 0 4.3 1.934 4.3 4.3v1.602c0 .788-.638 1.426-1.425 1.426z" stroke="#FFF" stroke-width="2" stroke-linecap="round"/><path d="M11.39 17H2.427A1.426 1.426 0 011 15.574v-1.602a4.314 4.314 0 014.3-4.3h3.216c2.365 0 4.3 1.934 4.3 4.3v1.602c0 .788-.638 1.426-1.425 1.426z" stroke="#FFF" stroke-width="2" stroke-linecap="round"/></g></svg>