<svg xmlns="http://www.w3.org/2000/svg"><path d="M14.802 19c-.09 0-.18-.003-.274-.009-1.107-.075-2.217-.402-3.599-1.058a19.266 19.266 0 01-6.33-4.956h-.002C3.19 11.292 2.16 9.571 1.538 7.862c-.31-.853-.615-1.877-.52-3.006a2.71 2.71 0 01.877-1.875L3.27 1.607C4.075.8 5.18.797 6.017 1.598c.257.24.51.498.753.748l.37.376L8.23 3.81c.833.87.833 1.94.008 2.801-.24.241-.473.467-.706.693-.197.191-.395.383-.592.579.235.531.582 1.063 1.108 1.707 1.101 1.338 2.165 2.304 3.348 3.037l.026.017c.148.103.33.195.522.29l.158.08 1.29-1.288c.397-.398.873-.609 1.376-.609.504 0 .98.21 1.378.608l2.23 2.231c.833.832.833 1.95 0 2.782-.146.147-.292.29-.438.433-.29.283-.563.551-.828.833-.575.658-1.353.996-2.307.996h0zm-9.37-6.722a18.179 18.179 0 005.97 4.675c1.247.592 2.235.887 3.198.952.744.048 1.284-.153 1.703-.631.293-.313.588-.602.873-.88.143-.14.287-.281.43-.425.413-.413.413-.831 0-1.244l-2.23-2.23c-.379-.379-.838-.379-1.217 0l-1.387 1.388c-.114.113-.459.457-1.009.183-.112-.06-.21-.109-.306-.158-.215-.107-.437-.218-.647-.363-1.283-.798-2.428-1.835-3.604-3.265-.646-.79-1.057-1.445-1.335-2.126a.804.804 0 01.217-.96c.229-.227.457-.449.685-.67.229-.222.458-.444.686-.673.419-.437.419-.834-.008-1.28l-1.08-1.079a45.545 45.545 0 01-.38-.386c-.245-.251-.477-.489-.72-.715-.295-.281-.74-.506-1.232-.014L2.652 3.764a1.647 1.647 0 00-.549 1.163c-.078.937.174 1.785.458 2.564.578 1.59 1.544 3.2 2.87 4.787h0z" fill="#fff" fill-rule="nonzero" stroke="#fff" stroke-width=".8"/></svg>