<svg xmlns="http://www.w3.org/2000/svg" width="8.533" height="7.314" viewBox="0 0 8.533 7.314"><path d="M7.528,1.156A1.833,1.833,0,0,0,8.3.135,3.4,3.4,0,0,1,7.185.583,1.7,1.7,0,0,0,5.908,0a1.8,1.8,0,0,0-1.75,1.846,1.932,1.932,0,0,0,.045.42A4.889,4.889,0,0,1,.594.338a1.92,1.92,0,0,0-.237.929A1.876,1.876,0,0,0,1.136,2.8a1.688,1.688,0,0,1-.793-.231V2.6a1.824,1.824,0,0,0,1.4,1.81,1.63,1.63,0,0,1-.462.065,1.646,1.646,0,0,1-.329-.033A1.766,1.766,0,0,0,2.592,5.72a3.4,3.4,0,0,1-2.174.79A3.306,3.306,0,0,1,0,6.485a4.774,4.774,0,0,0,2.684.829A5.1,5.1,0,0,0,7.664,2.061c0-.08,0-.16,0-.239A3.66,3.66,0,0,0,8.533.866,3.355,3.355,0,0,1,7.528,1.156Z" fill="#f2049b"/></svg>